<svg width="407" height="327" viewBox="0 0 407 327" fill="none" xmlns="http://www.w3.org/2000/svg">
<rect x="2.5" y="2.5" width="295" height="217" rx="12.5" fill="#1B365C" fill-opacity="0.4" stroke="#9CE0EE" stroke-width="5"/>
<rect x="54.5" y="55.5" width="295" height="217" rx="12.5" fill="#1B365C" fill-opacity="0.6" stroke="#FCF5D8" stroke-width="5"/>
<rect x="109.5" y="107.5" width="295" height="217" rx="12.5" fill="#1B365C" fill-opacity="0.8" stroke="#FCD2BA" stroke-width="5"/>
<path d="M83.8672 85.4141L85.1953 76.8008C85.2539 76.4883 85.0977 76.293 84.7852 76.2344C83.5938 76.0781 82.5391 76.0391 81.9727 76.0391C78.0664 76.0391 76.5039 78.7734 76.5039 82.3086C76.5039 85.2969 77.6562 86.1953 79.1406 86.1953C80.1367 86.1953 81.2891 85.707 82.3242 84.7695L82.207 85.5117C82.1484 85.8242 82.3047 86 82.6172 86H83.3398C83.6523 86 83.8281 85.7266 83.8672 85.4141ZM78.1836 82.0156C78.1836 79.6328 79.082 77.5234 81.7383 77.5234C82.0898 77.5234 82.7148 77.543 83.457 77.6016L82.5781 83.0508C81.5625 84.1445 80.5273 84.7109 79.7266 84.7109C78.8086 84.7109 78.1836 84.1641 78.1836 82.0156ZM90.1367 77.4648L90.2539 76.7227C90.293 76.4102 90.1562 76.2344 89.8438 76.2344H89.1211C88.8086 76.2344 88.6133 76.5078 88.5742 76.8203L87.1875 85.5117C87.1484 85.8242 87.2852 86 87.5977 86H88.2812C88.5938 86 88.8086 85.8242 88.8477 85.5117L89.8633 79.1836C90.8984 78.0898 91.9141 77.5234 92.7148 77.5234C93.6133 77.5234 94.3359 77.7578 94.3359 79.1836C94.3359 79.5156 94.4922 79.6914 94.8242 79.6914H95.5078C95.8203 79.6914 96.0156 79.5156 96.0156 79.2031C96.0938 76.6445 94.8242 76.0391 93.3008 76.0391C92.3047 76.0391 91.1523 76.5273 90.1367 77.4648ZM101.367 77.4648L101.484 76.7227C101.523 76.4102 101.387 76.2344 101.074 76.2344H100.352C100.039 76.2344 99.8438 76.5078 99.8047 76.8203L98.418 85.5117C98.3789 85.8242 98.5156 86 98.8281 86H99.5117C99.8242 86 100.039 85.8242 100.078 85.5117L101.094 79.1836C102.129 78.0898 103.145 77.5234 103.945 77.5234C104.844 77.5234 105.566 77.7578 105.566 79.1836C105.566 79.5156 105.723 79.6914 106.055 79.6914H106.738C107.051 79.6914 107.246 79.5156 107.246 79.2031C107.324 76.6445 106.055 76.0391 104.531 76.0391C103.535 76.0391 102.383 76.5273 101.367 77.4648ZM117.559 85.4141L118.887 76.8008C118.945 76.4883 118.789 76.293 118.477 76.2344C117.285 76.0781 116.23 76.0391 115.664 76.0391C111.758 76.0391 110.195 78.7734 110.195 82.3086C110.195 85.2969 111.348 86.1953 112.832 86.1953C113.828 86.1953 114.98 85.707 116.016 84.7695L115.898 85.5117C115.84 85.8242 115.996 86 116.309 86H117.031C117.344 86 117.52 85.7266 117.559 85.4141ZM111.875 82.0156C111.875 79.6328 112.773 77.5234 115.43 77.5234C115.781 77.5234 116.406 77.543 117.148 77.6016L116.27 83.0508C115.254 84.1445 114.219 84.7109 113.418 84.7109C112.5 84.7109 111.875 84.1641 111.875 82.0156ZM130.215 76.2344H129.512C129.219 76.2344 128.965 76.3711 128.887 76.6445C127.91 80.0625 127.227 82.7578 126.504 84.7695H125.156C124.551 84.7695 124.316 84.5547 124.297 84.1836L123.594 76.6445C123.574 76.3711 123.438 76.2344 123.145 76.2344H122.441C122.09 76.2344 121.895 76.4297 121.914 76.7812L122.617 84.4375C122.734 85.5703 123.477 86.1953 124.941 86.1953H125.938C124.98 88.2461 123.848 89.2617 121.895 89.2617C121.348 89.2617 120.703 89.1641 120 89.0078C119.727 88.8906 119.473 89.0078 119.336 89.3008L119.082 89.7891C118.926 90.082 119.004 90.2969 119.277 90.4141C120.273 90.668 121.152 90.7852 121.934 90.7852C127.012 90.7852 127.988 85.6289 130.527 76.7812C130.625 76.4492 130.547 76.2344 130.215 76.2344ZM137.402 83.2656H135.449C135.137 83.2656 134.922 83.4219 134.883 83.7539L134.59 85.5117C134.551 85.8242 134.688 86 135 86H136.953C137.285 86 137.48 85.8242 137.52 85.5117L137.812 83.7539C137.852 83.4219 137.715 83.2656 137.402 83.2656ZM145.625 77.4648L145.742 76.7227C145.781 76.4102 145.645 76.2344 145.332 76.2344H144.609C144.297 76.2344 144.102 76.5078 144.062 76.8203L142.676 85.5117C142.637 85.8242 142.773 86 143.086 86H143.77C144.082 86 144.297 85.8242 144.336 85.5117L145.371 78.9883C146.426 78.207 146.992 77.8359 147.305 77.8359C147.598 77.8359 147.598 78.2266 147.48 79.0078L146.445 85.5117C146.406 85.8242 146.543 86 146.855 86H147.539C147.871 86 148.066 85.8242 148.105 85.5117L149.141 79.0273C150.195 78.2266 150.801 77.8359 151.113 77.8359C151.406 77.8359 151.406 78.2266 151.289 79.0078L150.254 85.5117C150.215 85.8242 150.352 86 150.664 86H151.348C151.68 86 151.875 85.8242 151.914 85.5117L152.93 79.2031C153.262 77.0156 152.93 76.0977 152.07 76.0977C151.406 76.0977 150.43 76.6641 149.238 77.6016C149.219 76.5664 148.867 76.0977 148.262 76.0977C147.637 76.0977 146.719 76.6055 145.625 77.4648ZM162.48 85.4141L163.809 76.8008C163.867 76.4883 163.711 76.293 163.398 76.2344C162.207 76.0781 161.152 76.0391 160.586 76.0391C156.68 76.0391 155.117 78.7734 155.117 82.3086C155.117 85.2969 156.27 86.1953 157.754 86.1953C158.75 86.1953 159.902 85.707 160.938 84.7695L160.82 85.5117C160.762 85.8242 160.918 86 161.23 86H161.953C162.266 86 162.441 85.7266 162.48 85.4141ZM156.797 82.0156C156.797 79.6328 157.695 77.5234 160.352 77.5234C160.703 77.5234 161.328 77.543 162.07 77.6016L161.191 83.0508C160.176 84.1445 159.141 84.7109 158.34 84.7109C157.422 84.7109 156.797 84.1641 156.797 82.0156ZM165.469 90.8828H166.152C166.465 90.8828 166.68 90.707 166.719 90.3945L167.363 86.1172C168.066 86.1758 168.691 86.1953 169.082 86.1953C172.988 86.1953 174.551 83.6562 174.551 79.9258C174.551 77.1328 173.398 76.0391 171.914 76.0391C170.918 76.0391 169.766 76.5273 168.73 77.4648L168.848 76.7227C168.906 76.4102 168.75 76.2344 168.438 76.2344H167.715C167.402 76.2344 167.246 76.5078 167.188 76.8203L165.059 90.3945C165 90.707 165.156 90.8828 165.469 90.8828ZM167.598 84.6328L168.477 79.1836C169.492 78.0898 170.527 77.5234 171.328 77.5234C172.246 77.5234 172.871 78.2656 172.871 80.2188C172.871 82.7969 171.973 84.7109 169.316 84.7109C168.965 84.7109 168.34 84.6914 167.598 84.6328ZM186.465 72.3477L186.543 71.8398C186.602 71.5078 186.445 71.3516 186.133 71.3516C181.641 71.3516 178.262 77.3672 178.262 82.5234C178.262 86.5469 180.254 89.4766 183.262 89.4766C183.574 89.4766 183.77 89.3203 183.828 88.9883L183.906 88.4805C183.965 88.1484 183.828 87.9922 183.496 87.9922C181.348 87.9922 179.941 85.6484 179.941 82.4062C179.941 78.2656 182.402 72.8359 185.898 72.8359C186.23 72.8359 186.406 72.6797 186.465 72.3477ZM193.555 83.2656H191.602C191.289 83.2656 191.074 83.4219 191.035 83.7539L190.742 85.5117C190.703 85.8242 190.84 86 191.152 86H193.105C193.438 86 193.633 85.8242 193.672 85.5117L193.965 83.7539C194.004 83.4219 193.867 83.2656 193.555 83.2656ZM204.785 83.2656H202.832C202.52 83.2656 202.305 83.4219 202.266 83.7539L201.973 85.5117C201.934 85.8242 202.07 86 202.383 86H204.336C204.668 86 204.863 85.8242 204.902 85.5117L205.195 83.7539C205.234 83.4219 205.098 83.2656 204.785 83.2656ZM216.016 83.2656H214.062C213.75 83.2656 213.535 83.4219 213.496 83.7539L213.203 85.5117C213.164 85.8242 213.301 86 213.613 86H215.566C215.898 86 216.094 85.8242 216.133 85.5117L216.426 83.7539C216.465 83.4219 216.328 83.2656 216.016 83.2656ZM221.855 88.4805L221.777 88.9883C221.719 89.3203 221.875 89.4766 222.188 89.4766C226.68 89.4766 230.059 83.4609 230.059 78.3047C230.059 74.2812 228.066 71.3516 225.059 71.3516C224.746 71.3516 224.551 71.5078 224.492 71.8398L224.414 72.3477C224.355 72.6797 224.492 72.8359 224.824 72.8359C226.973 72.8359 228.379 75.1797 228.379 78.4219C228.379 82.5625 225.918 87.9922 222.422 87.9922C222.09 87.9922 221.914 88.1484 221.855 88.4805Z" fill="#FCF5D8"/>
<path d="M135.625 135.055H137.324V137.242C136.738 137.301 136.191 137.34 135.684 137.34C134.102 137.34 133.359 136.91 133.379 136.168C133.379 135.465 134.102 135.055 135.625 135.055ZM131.309 136.188C131.348 138.141 132.852 139.195 135.566 139.195C136.523 139.195 137.598 139.098 138.73 138.961C139.121 138.902 139.375 138.629 139.375 138.238V132.574C139.375 129.859 138.145 128.648 135.352 128.648C134.453 128.648 133.613 128.727 132.871 128.863C132.461 128.941 132.305 129.273 132.344 129.645L132.402 130.172C132.461 130.582 132.852 130.758 133.223 130.699C134.023 130.562 134.902 130.523 135.352 130.523C136.777 130.523 137.324 131.109 137.324 132.574V133.16H135.625C132.832 133.16 131.309 134.215 131.309 136.188ZM142.695 129.605V138.316C142.695 138.707 142.988 139 143.379 139H144.062C144.473 139 144.746 138.707 144.746 138.316V130.582C145.547 130.543 146.23 130.523 146.66 130.523C148.359 130.523 148.945 130.914 148.945 132.008C148.945 132.398 149.238 132.691 149.629 132.691H150.312C150.723 132.691 150.996 132.418 150.996 132.008C150.996 129.586 149.746 128.648 146.66 128.648C146.016 128.648 144.746 128.668 143.32 128.883C142.949 128.961 142.695 129.234 142.695 129.605ZM153.926 129.605V138.316C153.926 138.707 154.219 139 154.609 139H155.293C155.703 139 155.977 138.707 155.977 138.316V130.582C156.777 130.543 157.461 130.523 157.891 130.523C159.59 130.523 160.176 130.914 160.176 132.008C160.176 132.398 160.469 132.691 160.859 132.691H161.543C161.953 132.691 162.227 132.418 162.227 132.008C162.227 129.586 160.977 128.648 157.891 128.648C157.246 128.648 155.977 128.668 154.551 128.883C154.18 128.961 153.926 129.234 153.926 129.605ZM169.316 135.055H171.016V137.242C170.43 137.301 169.883 137.34 169.375 137.34C167.793 137.34 167.051 136.91 167.07 136.168C167.07 135.465 167.793 135.055 169.316 135.055ZM165 136.188C165.039 138.141 166.543 139.195 169.258 139.195C170.215 139.195 171.289 139.098 172.422 138.961C172.812 138.902 173.066 138.629 173.066 138.238V132.574C173.066 129.859 171.836 128.648 169.043 128.648C168.145 128.648 167.305 128.727 166.562 128.863C166.152 128.941 165.996 129.273 166.035 129.645L166.094 130.172C166.152 130.582 166.543 130.758 166.914 130.699C167.715 130.562 168.594 130.523 169.043 130.523C170.469 130.523 171.016 131.109 171.016 132.574V133.16H169.316C166.523 133.16 165 134.215 165 136.188ZM184.434 128.844H183.73C183.379 128.844 183.086 129.059 182.988 129.391L180.996 137.379H180.547C180.215 137.379 180.039 137.242 179.98 136.949L178.086 129.41C178.008 129.059 177.715 128.844 177.363 128.844H176.66C176.211 128.844 175.938 129.176 176.035 129.625L177.949 137.281C178.262 138.492 179.219 139.195 180.547 139.195C180.02 141.168 179.297 141.949 178.125 141.949C177.676 141.949 176.895 141.832 176.309 141.637C175.957 141.48 175.566 141.676 175.449 142.047L175.273 142.535C175.137 142.906 175.312 143.258 175.664 143.395C176.562 143.727 177.402 143.883 178.125 143.883C180.469 143.883 181.797 142.457 182.617 139.234L185.039 129.625C185.137 129.215 184.863 128.844 184.434 128.844ZM192.734 135.875H190.781C190.391 135.875 190.098 136.148 190.098 136.559V138.316C190.098 138.707 190.391 139 190.781 139H192.734C193.145 139 193.418 138.707 193.418 138.316V136.559C193.418 136.148 193.125 135.875 192.734 135.875ZM198.848 129.605V138.316C198.848 138.707 199.141 139 199.531 139H200.215C200.625 139 200.898 138.707 200.898 138.316V130.582C201.699 130.543 202.383 130.523 202.812 130.523C204.512 130.523 205.098 130.914 205.098 132.008C205.098 132.398 205.391 132.691 205.781 132.691H206.465C206.875 132.691 207.148 132.418 207.148 132.008C207.148 129.586 205.898 128.648 202.812 128.648C202.168 128.648 200.898 128.668 199.473 128.883C199.102 128.961 198.848 129.234 198.848 129.605ZM218.379 137.691L218.184 137.223C218.027 136.832 217.695 136.695 217.305 136.852C216.445 137.145 215.781 137.281 215.02 137.281C213.242 137.281 212.285 136.305 212.148 134.371H217.695C218.105 134.371 218.379 134.098 218.379 133.688V133.238C218.379 130.562 216.66 128.648 214.316 128.648C211.816 128.648 210.078 130.797 210.078 133.922C210.078 137.223 211.934 139.195 215.02 139.195C216.055 139.195 217.09 138.98 218.027 138.59C218.398 138.434 218.535 138.102 218.379 137.691ZM212.305 132.477C212.5 131.324 213.32 130.523 214.336 130.523C215.391 130.523 216.211 131.344 216.328 132.477H212.305ZM229.609 138.023V124.645C229.609 124.254 229.316 123.961 228.926 123.961H228.242C227.852 123.961 227.559 124.254 227.559 124.645V128.766C227.129 128.688 226.68 128.648 226.25 128.648C223.73 128.648 221.309 130.094 221.309 133.922C221.309 137.75 223.73 139.195 226.25 139.195C227.266 139.195 228.301 139 229.238 138.609C229.453 138.512 229.609 138.258 229.609 138.023ZM223.379 133.922C223.379 131.246 224.805 130.484 226.445 130.484C226.816 130.484 227.188 130.523 227.559 130.582V137.145C227.109 137.242 226.719 137.281 226.25 137.281C224.609 137.281 223.379 136.441 223.379 133.922ZM240.84 138.238V129.527C240.84 129.137 240.547 128.844 240.156 128.844H239.473C239.062 128.844 238.789 129.137 238.789 129.527V137.262C237.988 137.301 237.305 137.32 236.875 137.32C235.215 137.32 234.59 136.754 234.59 135.055V129.527C234.59 129.137 234.297 128.844 233.906 128.844H233.223C232.812 128.844 232.539 129.137 232.539 129.527V135.055C232.539 138.004 233.906 139.195 236.875 139.195C237.52 139.195 238.789 139.176 240.215 138.961C240.586 138.883 240.84 138.609 240.84 138.238ZM251.875 130.621L252.07 130.152C252.227 129.781 252.09 129.391 251.719 129.254C250.781 128.844 249.727 128.648 248.711 128.648C246.191 128.648 243.77 130.094 243.77 133.922C243.77 137.75 246.191 139.195 248.711 139.195C249.727 139.195 250.781 139 251.719 138.59C252.09 138.453 252.227 138.062 252.07 137.691L251.875 137.223C251.738 136.871 251.367 136.695 250.996 136.852C250.137 137.145 249.492 137.281 248.711 137.281C247.07 137.281 245.84 136.441 245.84 133.922C245.84 131.402 247.07 130.562 248.711 130.562C249.492 130.562 250.156 130.699 251.016 130.992C251.367 131.148 251.738 130.973 251.875 130.621ZM263.301 137.691L263.105 137.223C262.949 136.832 262.617 136.695 262.227 136.852C261.367 137.145 260.703 137.281 259.941 137.281C258.164 137.281 257.207 136.305 257.07 134.371H262.617C263.027 134.371 263.301 134.098 263.301 133.688V133.238C263.301 130.562 261.582 128.648 259.238 128.648C256.738 128.648 255 130.797 255 133.922C255 137.223 256.855 139.195 259.941 139.195C260.977 139.195 262.012 138.98 262.949 138.59C263.32 138.434 263.457 138.102 263.301 137.691ZM257.227 132.477C257.422 131.324 258.242 130.523 259.258 130.523C260.312 130.523 261.133 131.344 261.25 132.477H257.227ZM273.633 140.719C270.547 140.094 268.301 137.262 268.301 133.434C268.301 129.605 270.547 126.773 273.633 126.148C274.023 126.07 274.258 125.719 274.16 125.328L274.043 124.781C273.965 124.371 273.613 124.195 273.223 124.254C269.121 125.094 266.23 128.707 266.23 133.434C266.23 138.16 269.121 141.773 273.223 142.613C273.613 142.672 273.965 142.496 274.043 142.086L274.16 141.539C274.258 141.148 274.023 140.797 273.633 140.719ZM282.578 135.875H280.625C280.234 135.875 279.941 136.148 279.941 136.559V138.316C279.941 138.707 280.234 139 280.625 139H282.578C282.988 139 283.262 138.707 283.262 138.316V136.559C283.262 136.148 282.969 135.875 282.578 135.875ZM293.809 135.875H291.855C291.465 135.875 291.172 136.148 291.172 136.559V138.316C291.172 138.707 291.465 139 291.855 139H293.809C294.219 139 294.492 138.707 294.492 138.316V136.559C294.492 136.148 294.199 135.875 293.809 135.875ZM305.039 135.875H303.086C302.695 135.875 302.402 136.148 302.402 136.559V138.316C302.402 138.707 302.695 139 303.086 139H305.039C305.449 139 305.723 138.707 305.723 138.316V136.559C305.723 136.148 305.43 135.875 305.039 135.875ZM311.953 140.719C311.562 140.797 311.328 141.148 311.426 141.539L311.543 142.086C311.621 142.496 311.973 142.672 312.363 142.613C316.465 141.773 319.355 138.16 319.355 133.434C319.355 128.707 316.465 125.094 312.363 124.254C311.973 124.195 311.621 124.371 311.543 124.781L311.426 125.328C311.328 125.719 311.562 126.07 311.953 126.148C315.039 126.773 317.285 129.605 317.285 133.434C317.285 137.262 315.039 140.094 311.953 140.719Z" fill="#FCD2BA"/>
<path d="M25.8672 32.4141L27.1953 23.8008C27.2539 23.4883 27.0977 23.293 26.7852 23.2344C25.5938 23.0781 24.5391 23.0391 23.9727 23.0391C20.0664 23.0391 18.5039 25.7734 18.5039 29.3086C18.5039 32.2969 19.6562 33.1953 21.1406 33.1953C22.1367 33.1953 23.2891 32.707 24.3242 31.7695L24.207 32.5117C24.1484 32.8242 24.3047 33 24.6172 33H25.3398C25.6523 33 25.8281 32.7266 25.8672 32.4141ZM20.1836 29.0156C20.1836 26.6328 21.082 24.5234 23.7383 24.5234C24.0898 24.5234 24.7148 24.543 25.457 24.6016L24.5781 30.0508C23.5625 31.1445 22.5273 31.7109 21.7266 31.7109C20.8086 31.7109 20.1836 31.1641 20.1836 29.0156ZM32.1367 24.4648L32.2539 23.7227C32.293 23.4102 32.1562 23.2344 31.8438 23.2344H31.1211C30.8086 23.2344 30.6133 23.5078 30.5742 23.8203L29.1875 32.5117C29.1484 32.8242 29.2852 33 29.5977 33H30.2812C30.5938 33 30.8086 32.8242 30.8477 32.5117L31.8633 26.1836C32.8984 25.0898 33.9141 24.5234 34.7148 24.5234C35.6133 24.5234 36.3359 24.7578 36.3359 26.1836C36.3359 26.5156 36.4922 26.6914 36.8242 26.6914H37.5078C37.8203 26.6914 38.0156 26.5156 38.0156 26.2031C38.0938 23.6445 36.8242 23.0391 35.3008 23.0391C34.3047 23.0391 33.1523 23.5273 32.1367 24.4648ZM43.3672 24.4648L43.4844 23.7227C43.5234 23.4102 43.3867 23.2344 43.0742 23.2344H42.3516C42.0391 23.2344 41.8438 23.5078 41.8047 23.8203L40.418 32.5117C40.3789 32.8242 40.5156 33 40.8281 33H41.5117C41.8242 33 42.0391 32.8242 42.0781 32.5117L43.0938 26.1836C44.1289 25.0898 45.1445 24.5234 45.9453 24.5234C46.8438 24.5234 47.5664 24.7578 47.5664 26.1836C47.5664 26.5156 47.7227 26.6914 48.0547 26.6914H48.7383C49.0508 26.6914 49.2461 26.5156 49.2461 26.2031C49.3242 23.6445 48.0547 23.0391 46.5312 23.0391C45.5352 23.0391 44.3828 23.5273 43.3672 24.4648ZM59.5586 32.4141L60.8867 23.8008C60.9453 23.4883 60.7891 23.293 60.4766 23.2344C59.2852 23.0781 58.2305 23.0391 57.6641 23.0391C53.7578 23.0391 52.1953 25.7734 52.1953 29.3086C52.1953 32.2969 53.3477 33.1953 54.832 33.1953C55.8281 33.1953 56.9805 32.707 58.0156 31.7695L57.8984 32.5117C57.8398 32.8242 57.9961 33 58.3086 33H59.0312C59.3438 33 59.5195 32.7266 59.5586 32.4141ZM53.875 29.0156C53.875 26.6328 54.7734 24.5234 57.4297 24.5234C57.7812 24.5234 58.4062 24.543 59.1484 24.6016L58.2695 30.0508C57.2539 31.1445 56.2188 31.7109 55.418 31.7109C54.5 31.7109 53.875 31.1641 53.875 29.0156ZM72.2148 23.2344H71.5117C71.2188 23.2344 70.9648 23.3711 70.8867 23.6445C69.9102 27.0625 69.2266 29.7578 68.5039 31.7695H67.1562C66.5508 31.7695 66.3164 31.5547 66.2969 31.1836L65.5938 23.6445C65.5742 23.3711 65.4375 23.2344 65.1445 23.2344H64.4414C64.0898 23.2344 63.8945 23.4297 63.9141 23.7812L64.6172 31.4375C64.7344 32.5703 65.4766 33.1953 66.9414 33.1953H67.9375C66.9805 35.2461 65.8477 36.2617 63.8945 36.2617C63.3477 36.2617 62.7031 36.1641 62 36.0078C61.7266 35.8906 61.4727 36.0078 61.3359 36.3008L61.082 36.7891C60.9258 37.082 61.0039 37.2969 61.2773 37.4141C62.2734 37.668 63.1523 37.7852 63.9336 37.7852C69.0117 37.7852 69.9883 32.6289 72.5273 23.7812C72.625 23.4492 72.5469 23.2344 72.2148 23.2344ZM79.4023 30.2656H77.4492C77.1367 30.2656 76.9219 30.4219 76.8828 30.7539L76.5898 32.5117C76.5508 32.8242 76.6875 33 77 33H78.9531C79.2852 33 79.4805 32.8242 79.5195 32.5117L79.8125 30.7539C79.8516 30.4219 79.7148 30.2656 79.4023 30.2656ZM95.2227 19.6211L95.5156 19.1133C95.6719 18.8203 95.6328 18.5859 95.3398 18.4883C94.7344 18.2539 94.0312 18.0977 93.3477 18.0977C91.4922 18.0977 89.6367 19.1328 89.1289 22.2773L88.9922 23.2344H87.1172C86.8047 23.2344 86.5898 23.4102 86.5508 23.7227L86.4727 24.2305C86.4141 24.5625 86.5703 24.7188 86.8828 24.7188H88.7578L87.4297 33C87.1953 34.543 86.7852 35.1094 85.4766 35.8125C85.1641 35.9688 85.0469 36.2031 85.1836 36.4961L85.418 37.082C85.5352 37.3555 85.7891 37.4141 86.082 37.2578C88.1328 36.1641 88.7383 35.3242 89.0898 33L90.418 24.7188H93.6211C93.9336 24.7188 94.1289 24.543 94.1875 24.2305L94.2656 23.7227C94.3047 23.4102 94.168 23.2344 93.8555 23.2344H90.6719L90.8086 22.2773C91.1406 20.168 91.9805 19.6211 93.1133 19.6211C93.6016 19.6211 94.0312 19.6992 94.5391 19.8945C94.8125 20.0117 95.0469 19.9141 95.2227 19.6211ZM102.098 23C98.9531 23 97.1562 26.2227 97.1562 29.3086C97.1562 32.043 98.6406 33.2344 100.496 33.2344C103.621 33.2344 105.301 29.9727 105.301 26.8477C105.301 24.1719 103.934 23 102.098 23ZM98.8359 29.0938C98.8359 27.1406 99.832 24.5039 101.805 24.5039C102.938 24.5039 103.621 25.3828 103.621 27.1406C103.621 29.0938 102.625 31.7305 100.672 31.7305C99.5391 31.7305 98.8359 30.832 98.8359 29.0938ZM110.75 24.4648L110.867 23.7227C110.906 23.4102 110.77 23.2344 110.457 23.2344H109.734C109.422 23.2344 109.227 23.5078 109.188 23.8203L107.801 32.5117C107.762 32.8242 107.898 33 108.211 33H108.895C109.207 33 109.422 32.8242 109.461 32.5117L110.477 26.1836C111.512 25.0898 112.527 24.5234 113.328 24.5234C114.227 24.5234 114.949 24.7578 114.949 26.1836C114.949 26.5156 115.105 26.6914 115.438 26.6914H116.121C116.434 26.6914 116.629 26.5156 116.629 26.2031C116.707 23.6445 115.438 23.0391 113.914 23.0391C112.918 23.0391 111.766 23.5273 110.75 24.4648ZM127.137 31.4961H120.867L121.629 26.6328H127.059C127.371 26.6328 127.566 26.457 127.625 26.1445L127.703 25.6172C127.762 25.3047 127.605 25.1289 127.293 25.1289H121.863L122.547 20.8125H128.387C128.699 20.8125 128.914 20.6562 128.953 20.3242L129.031 19.8164C129.09 19.4844 128.934 19.3281 128.621 19.3281H121.609C121.297 19.3281 121.102 19.5039 121.043 19.8164L119.031 32.5117C118.992 32.8242 119.129 33 119.441 33H126.883C127.195 33 127.41 32.8242 127.449 32.5117L127.547 31.9844C127.586 31.6719 127.449 31.4961 127.137 31.4961ZM138.172 32.4141L139.5 23.8008C139.559 23.4883 139.402 23.293 139.09 23.2344C137.898 23.0781 136.844 23.0391 136.277 23.0391C132.371 23.0391 130.809 25.7734 130.809 29.3086C130.809 32.2969 131.961 33.1953 133.445 33.1953C134.441 33.1953 135.594 32.707 136.629 31.7695L136.512 32.5117C136.453 32.8242 136.609 33 136.922 33H137.645C137.957 33 138.133 32.7266 138.172 32.4141ZM132.488 29.0156C132.488 26.6328 133.387 24.5234 136.043 24.5234C136.395 24.5234 137.02 24.543 137.762 24.6016L136.883 30.0508C135.867 31.1445 134.832 31.7109 134.031 31.7109C133.113 31.7109 132.488 31.1641 132.488 29.0156ZM150.457 24.7383L150.73 24.2695C150.906 23.9766 150.848 23.7422 150.574 23.625C149.734 23.2344 148.738 23.0391 147.742 23.0391C144.188 23.0391 142.098 25.7734 142.098 29.0547C142.098 32.1211 143.973 33.1953 146.141 33.1953C147.137 33.1953 148.172 33 149.168 32.6094C149.48 32.4922 149.578 32.2578 149.52 31.9648L149.402 31.4961C149.324 31.2031 149.129 31.1055 148.816 31.2227C147.879 31.5352 147.176 31.6719 146.375 31.6719C144.871 31.6719 143.777 31.0078 143.777 28.8789C143.777 26.6523 144.949 24.5625 147.508 24.5625C148.309 24.5625 148.992 24.6992 149.793 25.0117C150.066 25.1289 150.301 25.0312 150.457 24.7383ZM155.672 24.4648L156.551 18.8398C156.609 18.5273 156.453 18.3516 156.141 18.3516H155.418C155.105 18.3516 154.93 18.625 154.871 18.9375L152.723 32.5117C152.684 32.8242 152.82 33 153.133 33H153.816C154.129 33 154.344 32.8242 154.383 32.5117L155.398 26.1836C156.434 25.0898 157.449 24.5234 158.465 24.5234C159.207 24.5234 159.871 24.7773 159.871 26.2812C159.871 26.6328 159.832 27.0625 159.754 27.5703L158.973 32.5117C158.934 32.8242 159.07 33 159.383 33H160.066C160.398 33 160.594 32.8242 160.633 32.5117L161.414 27.5703C161.512 26.9648 161.551 26.4375 161.551 25.9883C161.551 23.6055 160.34 23.0391 159.031 23.0391C157.84 23.0391 156.688 23.5273 155.672 24.4648ZM173.387 19.3477L173.465 18.8398C173.523 18.5078 173.367 18.3516 173.055 18.3516C168.562 18.3516 165.184 24.3672 165.184 29.5234C165.184 33.5469 167.176 36.4766 170.184 36.4766C170.496 36.4766 170.691 36.3203 170.75 35.9883L170.828 35.4805C170.887 35.1484 170.75 34.9922 170.418 34.9922C168.27 34.9922 166.863 32.6484 166.863 29.4062C166.863 25.2656 169.324 19.8359 172.82 19.8359C173.152 19.8359 173.328 19.6797 173.387 19.3477ZM180.477 30.2656H178.523C178.211 30.2656 177.996 30.4219 177.957 30.7539L177.664 32.5117C177.625 32.8242 177.762 33 178.074 33H180.027C180.359 33 180.555 32.8242 180.594 32.5117L180.887 30.7539C180.926 30.4219 180.789 30.2656 180.477 30.2656ZM191.707 30.2656H189.754C189.441 30.2656 189.227 30.4219 189.188 30.7539L188.895 32.5117C188.855 32.8242 188.992 33 189.305 33H191.258C191.59 33 191.785 32.8242 191.824 32.5117L192.117 30.7539C192.156 30.4219 192.02 30.2656 191.707 30.2656ZM202.938 30.2656H200.984C200.672 30.2656 200.457 30.4219 200.418 30.7539L200.125 32.5117C200.086 32.8242 200.223 33 200.535 33H202.488C202.82 33 203.016 32.8242 203.055 32.5117L203.348 30.7539C203.387 30.4219 203.25 30.2656 202.938 30.2656ZM208.777 35.4805L208.699 35.9883C208.641 36.3203 208.797 36.4766 209.109 36.4766C213.602 36.4766 216.98 30.4609 216.98 25.3047C216.98 21.2812 214.988 18.3516 211.98 18.3516C211.668 18.3516 211.473 18.5078 211.414 18.8398L211.336 19.3477C211.277 19.6797 211.414 19.8359 211.746 19.8359C213.895 19.8359 215.301 22.1797 215.301 25.4219C215.301 29.5625 212.84 34.9922 209.344 34.9922C209.012 34.9922 208.836 35.1484 208.777 35.4805Z" fill="#9CE0EE"/>
<rect x="130" y="159" width="103" height="19" rx="5" fill="#FCD2BA"/>
<rect x="131.5" y="202.5" width="182" height="16" rx="3.5" stroke="#FCD2BA" stroke-width="3"/>
<rect x="167.5" y="240.5" width="64" height="16" rx="3.5" stroke="#FCD2BA" stroke-width="3"/>
<rect x="131.5" y="284.5" width="43" height="16" rx="3.5" stroke="#FCD2BA" stroke-width="3"/>
<rect x="252.5" y="160.5" width="100" height="16" rx="3.5" stroke="#FCD2BA" stroke-width="3"/>
<rect x="192" y="283" width="131" height="19" rx="5" fill="#FCD2BA"/>
</svg>
