<svg width="1920" height="1080" viewBox="0 0 1920 1080" fill="none" xmlns="http://www.w3.org/2000/svg">
<circle cx="771" cy="533" r="129" fill="#9CE0EE" stroke="#1B365C" stroke-width="10"/>
<circle cx="1032" cy="188" r="129" fill="#9CE0EE" stroke="#1B365C" stroke-width="10"/>
<rect x="1027" y="180" width="888" height="895" rx="25" fill="#FCD2BA" stroke="#1B365C" stroke-width="10"/>
<rect x="5" y="294" width="759" height="668" rx="25" fill="#FCD2BA" stroke="#1B365C" stroke-width="10"/>
<rect x="52" y="611" width="665" height="301" rx="25" fill="#9CE0EE" stroke="#1B365C" stroke-width="10"/>
<rect x="1085" y="611" width="774" height="414" rx="25" fill="#9CE0EE" stroke="#1B365C" stroke-width="10"/>
<rect y="144" width="398" height="89" rx="30" fill="#1B365C"/>
<rect x="406" y="785" width="265" height="89" rx="30" fill="#1B365C"/>
<rect x="1360" y="654" width="466" height="89" rx="30" fill="#1B365C"/>
<rect x="248" y="480" width="431" height="89" rx="30" fill="#1B365C"/>
<rect x="444" y="149" width="140" height="79" rx="25" stroke="#1B365C" stroke-width="10"/>
<rect x="1737" y="5" width="178" height="134" rx="25" stroke="#1B365C" stroke-width="10"/>
<rect x="1476" y="5" width="178" height="134" rx="25" stroke="#1B365C" stroke-width="10"/>
<rect x="331" y="665" width="335" height="79" rx="25" fill="#FCF5D8" stroke="#1B365C" stroke-width="10"/>
<rect x="67" y="486" width="140" height="79" rx="25" stroke="#1B365C" stroke-width="10"/>
<rect x="67" y="360" width="391" height="79" rx="25" fill="#FCF5D8" stroke="#1B365C" stroke-width="10"/>
<rect x="1080" y="358" width="617" height="89" rx="30" fill="#1B365C"/>
<rect x="1517" y="233" width="180" height="89" rx="30" fill="#1B365C"/>
<rect x="1096" y="486" width="140" height="79" rx="25" stroke="#1B365C" stroke-width="10"/>
<rect x="1134" y="899" width="453" height="79" rx="25" fill="#FCF5D8" stroke="#1B365C" stroke-width="10"/>
<rect x="1513" y="778" width="187" height="79" rx="25" stroke="#1B365C" stroke-width="10"/>
<rect x="1365" y="779" width="111" height="79" rx="25" fill="#FCF5D8" stroke="#1B365C" stroke-width="10"/>
<rect x="1737" y="363" width="140" height="79" rx="25" stroke="#1B365C" stroke-width="10"/>
<rect x="1085" y="238" width="391" height="79" rx="25" fill="#FCF5D8" stroke="#1B365C" stroke-width="10"/>
<rect x="1275" y="485" width="417" height="79" rx="25" fill="#FCF5D8" stroke="#1B365C" stroke-width="10"/>
<circle cx="200" cy="764" r="99" fill="#1B365C"/>
<circle cx="1221" cy="759" r="99" fill="#1B365C"/>
<line x1="714.913" y1="757.084" x2="1080.91" y2="825.084" stroke="#1B365C" stroke-width="10"/>
<line x1="849.964" y1="431.049" x2="955.964" y2="286.049" stroke="#1B365C" stroke-width="10"/>
</svg>
